<svg xmlns="http://www.w3.org/2000/svg" xmlns:xlink="http://www.w3.org/1999/xlink" width="64" zoomAndPan="magnify" viewBox="0 0 48 48" height="64" preserveAspectRatio="xMidYMid meet" version="1.0"><defs><g/><clipPath id="7e1265db85"><path d="M 4 17.792969 L 14 17.792969 L 14 24 L 4 24 Z M 4 17.792969 " clip-rule="nonzero"/></clipPath><clipPath id="46e477afad"><path d="M 4 23 L 27.671875 23 L 27.671875 28.8125 L 4 28.8125 Z M 4 23 " clip-rule="nonzero"/></clipPath><clipPath id="41a38114a9"><path d="M 1.222656 17.792969 L 9 17.792969 L 9 24 L 1.222656 24 Z M 1.222656 17.792969 " clip-rule="nonzero"/></clipPath><clipPath id="0e2da9dd81"><path d="M 1.222656 23 L 9 23 L 9 28.8125 L 1.222656 28.8125 Z M 1.222656 23 " clip-rule="nonzero"/></clipPath></defs><g clip-path="url(#7e1265db85)"><path fill="#3871c1" d="M 13.203125 17.804688 L 9.921875 17.804688 L 4.425781 23.304688 L 7.707031 23.304688 L 13.203125 17.804688 " fill-opacity="1" fill-rule="nonzero"/></g><g clip-path="url(#46e477afad)"><path fill="#51ade5" d="M 27.675781 28.804688 L 11.363281 26.964844 L 7.707031 23.304688 L 4.425781 23.304688 L 9.921875 28.804688 L 27.675781 28.804688 " fill-opacity="1" fill-rule="nonzero"/></g><g clip-path="url(#41a38114a9)"><path fill="#3871c1" d="M 6.722656 17.804688 L 1.226562 23.304688 L 3.128906 23.304688 L 8.628906 17.804688 L 6.722656 17.804688 " fill-opacity="1" fill-rule="nonzero"/></g><g clip-path="url(#0e2da9dd81)"><path fill="#51ade5" d="M 6.722656 28.804688 L 8.628906 28.804688 L 3.128906 23.304688 L 1.226562 23.304688 L 6.722656 28.804688 " fill-opacity="1" fill-rule="nonzero"/></g><g fill="#38b6ff" fill-opacity="1"><g transform="translate(13.025497, 25.648007)"><g><path d="M 4.96875 -6.28125 C 4.695312 -6.28125 4.5625 -6.148438 4.5625 -5.890625 L 4.5625 -2.453125 L 4.546875 -2.453125 L 4.546875 -2.265625 C 4.546875 -2.171875 4.535156 -2.082031 4.515625 -2 C 4.453125 -1.726562 4.34375 -1.5 4.1875 -1.3125 C 3.894531 -1 3.460938 -0.828125 2.890625 -0.796875 C 2.378906 -0.785156 1.988281 -0.914062 1.71875 -1.1875 C 1.519531 -1.375 1.382812 -1.625 1.3125 -1.9375 C 1.289062 -2.03125 1.273438 -2.132812 1.265625 -2.25 L 1.265625 -2.4375 L 1.234375 -2.4375 L 1.234375 -5.890625 C 1.234375 -6.148438 1.101562 -6.28125 0.84375 -6.28125 C 0.570312 -6.28125 0.4375 -6.148438 0.4375 -5.890625 L 0.4375 -2.265625 L 0.46875 -2.125 C 0.5 -1.875 0.554688 -1.632812 0.640625 -1.40625 C 0.742188 -1.09375 0.90625 -0.832031 1.125 -0.625 C 1.539062 -0.207031 2.09375 0 2.78125 0 L 2.90625 0 C 3.71875 -0.0390625 4.335938 -0.296875 4.765625 -0.765625 C 4.960938 -0.984375 5.117188 -1.238281 5.234375 -1.53125 C 5.304688 -1.738281 5.347656 -1.953125 5.359375 -2.171875 L 5.375 -2.265625 L 5.375 -5.890625 C 5.375 -6.148438 5.238281 -6.28125 4.96875 -6.28125 Z M 4.96875 -6.28125 "/></g></g><g transform="translate(18.945591, 25.648007)"><g><path d="M 1.375 -5.515625 L 3.21875 -5.515625 C 3.289062 -5.503906 3.359375 -5.492188 3.421875 -5.484375 C 3.640625 -5.441406 3.804688 -5.367188 3.921875 -5.265625 C 4.035156 -5.148438 4.09375 -4.976562 4.09375 -4.75 C 4.070312 -4.144531 3.742188 -3.847656 3.109375 -3.859375 L 3.109375 -3.84375 L 1.375 -3.84375 Z M 0.9375 0 C 1.226562 0 1.375 -0.140625 1.375 -0.421875 L 1.375 -3 L 3.140625 -3 C 4.328125 -3 4.9375 -3.578125 4.96875 -4.734375 C 4.96875 -5.003906 4.921875 -5.25 4.828125 -5.46875 C 4.753906 -5.625 4.648438 -5.765625 4.515625 -5.890625 C 4.296875 -6.109375 4.003906 -6.253906 3.640625 -6.328125 C 3.515625 -6.335938 3.394531 -6.347656 3.28125 -6.359375 L 0.9375 -6.359375 C 0.65625 -6.359375 0.515625 -6.21875 0.515625 -5.9375 L 0.515625 -0.421875 C 0.515625 -0.140625 0.65625 0 0.9375 0 Z M 0.9375 0 "/></g></g><g transform="translate(24.317527, 25.648007)"><g><path d="M 1.640625 -5.9375 C 1.628906 -6.21875 1.488281 -6.359375 1.21875 -6.359375 C 0.925781 -6.359375 0.78125 -6.210938 0.78125 -5.921875 L 0.78125 -0.421875 C 0.78125 -0.140625 0.921875 0 1.203125 0 L 4.03125 0 C 4.320312 0 4.46875 -0.140625 4.46875 -0.421875 C 4.46875 -0.703125 4.320312 -0.84375 4.03125 -0.84375 L 1.640625 -0.84375 Z M 1.640625 -5.9375 "/></g></g><g transform="translate(29.433658, 25.648007)"><g><path d="M 1.21875 -6.015625 C 1.125 -6.265625 0.957031 -6.347656 0.71875 -6.265625 C 0.457031 -6.179688 0.367188 -6.015625 0.453125 -5.765625 L 2.3125 -2.625 L 2.3125 -0.40625 C 2.3125 -0.132812 2.441406 0 2.703125 0 C 2.972656 0 3.109375 -0.132812 3.109375 -0.40625 L 3.109375 -2.71875 C 3.109375 -2.820312 3.078125 -2.914062 3.015625 -3 Z M 4.703125 -6.234375 C 4.441406 -6.316406 4.269531 -6.234375 4.1875 -5.984375 L 3 -3.96875 C 2.914062 -3.707031 3 -3.53125 3.25 -3.4375 C 3.507812 -3.351562 3.679688 -3.4375 3.765625 -3.6875 L 4.953125 -5.703125 C 5.035156 -5.960938 4.953125 -6.140625 4.703125 -6.234375 Z M 4.703125 -6.234375 "/></g></g><g transform="translate(34.933498, 25.648007)"><g><path d="M 0.78125 -0.359375 C 0.78125 -0.253906 0.820312 -0.160156 0.90625 -0.078125 C 0.988281 0.015625 1.085938 0.0625 1.203125 0.0625 C 1.328125 0.0625 1.425781 0.015625 1.5 -0.078125 C 1.582031 -0.148438 1.628906 -0.238281 1.640625 -0.34375 L 1.640625 -2.625 L 4.109375 -2.625 C 4.234375 -2.625 4.332031 -2.660156 4.40625 -2.734375 C 4.488281 -2.828125 4.53125 -2.929688 4.53125 -3.046875 C 4.53125 -3.160156 4.488281 -3.257812 4.40625 -3.34375 C 4.332031 -3.425781 4.234375 -3.46875 4.109375 -3.46875 L 1.640625 -3.46875 L 1.640625 -5.453125 L 4.03125 -5.453125 C 4.15625 -5.453125 4.257812 -5.492188 4.34375 -5.578125 C 4.414062 -5.648438 4.453125 -5.75 4.453125 -5.875 C 4.453125 -5.976562 4.414062 -6.070312 4.34375 -6.15625 C 4.257812 -6.238281 4.15625 -6.28125 4.03125 -6.28125 L 1.203125 -6.28125 C 1.085938 -6.28125 0.988281 -6.238281 0.90625 -6.15625 C 0.820312 -6.070312 0.78125 -5.976562 0.78125 -5.875 C 0.78125 -5.84375 0.78125 -5.816406 0.78125 -5.796875 Z M 0.78125 -0.359375 "/></g></g><g transform="translate(39.812094, 25.648007)"><g><path d="M 5.125 -6.28125 L 0.75 -6.28125 C 0.46875 -6.269531 0.328125 -6.140625 0.328125 -5.890625 C 0.328125 -5.609375 0.472656 -5.46875 0.765625 -5.46875 L 2.578125 -5.46875 L 2.578125 -0.40625 C 2.578125 -0.125 2.722656 0.015625 3.015625 0.015625 C 3.296875 0.015625 3.4375 -0.117188 3.4375 -0.390625 L 3.453125 -0.390625 L 3.453125 -5.46875 L 5.09375 -5.46875 C 5.382812 -5.46875 5.53125 -5.609375 5.53125 -5.890625 C 5.53125 -6.140625 5.394531 -6.269531 5.125 -6.28125 Z M 5.125 -6.28125 "/></g></g></g></svg>